<svg version="1.1" id="Layer_1" xmlns="http://www.w3.org/2000/svg" xmlns:xlink="http://www.w3.org/1999/xlink" x="0px" y="0px"
	 width="100%" viewBox="0 0 200 200" enable-background="new 0 0 200 200" xml:space="preserve">
<path fill="#000000" opacity="1.000000" stroke="none" 
	d="
M114.000000,201.000000 
	C76.023453,201.000000 38.546898,201.000000 1.035174,201.000000 
	C1.035174,134.398483 1.035174,67.796951 1.035174,1.097705 
	C67.559715,1.097705 134.119629,1.097705 200.839767,1.097705 
	C200.839767,67.666359 200.839767,134.333145 200.839767,201.000000 
	C172.130569,201.000000 143.315277,201.000000 114.000000,201.000000 
M133.788071,114.149460 
	C133.788071,112.035660 133.788071,109.921867 133.788071,107.870407 
	C142.640686,106.966072 142.640701,106.966064 144.654053,110.563934 
	C148.165604,116.839127 148.165588,116.839134 155.748444,115.378525 
	C154.330917,112.569443 152.934067,109.801361 151.531021,107.020958 
	C152.775314,105.941643 153.874664,105.186234 154.728622,104.215050 
	C160.147186,98.052711 156.992172,86.248497 149.262985,85.410530 
	C141.628525,84.582840 133.834198,85.229713 126.311447,85.229713 
	C126.311447,95.832443 126.311447,105.892479 126.311447,116.472282 
	C129.052948,115.960304 131.389343,115.523987 133.788071,114.149460 
M116.206261,116.019485 
	C117.028526,115.981880 117.850800,115.944275 119.054535,115.889221 
	C117.541367,112.754211 116.131622,109.833466 114.757927,106.987404 
	C115.979057,105.914093 117.625465,105.182785 117.834602,104.158119 
	C118.697754,99.929123 120.281586,95.321869 119.307243,91.427383 
	C118.654861,88.819824 114.317276,85.754982 111.322906,85.387665 
	C104.160309,84.509033 96.816956,85.103912 89.378159,85.103912 
	C89.378159,95.601501 89.378159,105.655388 89.378159,115.706764 
	C92.019844,115.706764 94.401741,115.706764 97.175537,115.706764 
	C97.175537,112.790138 97.175537,110.209938 97.175537,107.896645 
	C103.275589,106.380066 107.433990,107.670578 109.722198,113.734116 
	C110.209412,115.025146 113.413193,115.291016 116.206261,116.019485 
M83.068993,87.722656 
	C82.119270,82.319237 78.225418,86.208214 75.270782,84.769066 
	C75.270782,91.190491 75.324257,96.971085 75.254837,102.750198 
	C75.192963,107.899971 74.121979,108.712959 67.871735,108.705605 
	C61.003407,108.697517 59.956360,107.978943 59.892406,102.861122 
	C59.820141,97.077705 59.875748,91.292686 59.875748,85.339951 
	C57.041248,85.339951 54.670197,85.339951 52.015316,85.339951 
	C52.015316,86.938568 52.014370,88.248581 52.015480,89.558594 
	C52.020134,95.049988 51.817192,100.551437 52.082039,106.030273 
	C52.429512,113.218323 58.984928,118.244385 66.002441,116.578758 
	C69.113914,115.840240 71.980881,114.071594 75.003410,112.751083 
	C75.164528,113.564606 75.397743,114.742149 75.607162,115.799561 
	C78.254738,115.799561 80.513741,115.799561 83.063538,115.799561 
	C83.063538,106.603088 83.063538,97.644676 83.068993,87.722656 
M32.638031,92.944679 
	C37.062397,92.944679 41.486763,92.944679 45.850021,92.944679 
	C45.850021,89.976326 45.850021,87.575500 45.850021,85.068123 
	C40.362366,85.068123 35.194489,84.863792 30.048800,85.114578 
	C21.705021,85.521217 15.189254,92.229126 15.006618,100.246376 
	C14.830326,107.985161 21.541485,115.453972 29.531868,115.933075 
	C34.959023,116.258492 40.421474,115.995232 45.818352,115.995232 
	C45.818352,113.242447 45.818352,110.867729 45.818352,108.250397 
	C39.822231,108.250397 34.160198,108.485428 28.538540,108.112236 
	C26.771080,107.994896 24.153431,106.632408 23.563971,105.176308 
	C20.483143,97.565887 23.711933,92.970879 32.638031,92.944679 
M186.991852,88.492508 
	C186.277679,87.354515 185.594589,85.251762 184.844543,85.227600 
	C177.255234,84.983177 169.654968,85.078522 162.198151,85.078522 
	C162.198151,87.713196 162.198151,89.774544 162.198151,91.286469 
	C164.934250,93.622490 170.095978,88.931892 170.561142,95.314285 
	C171.478439,107.900078 171.452850,107.993835 162.151550,109.614059 
	C162.151550,111.670029 162.151550,113.725998 162.151550,115.764664 
	C170.531433,115.764664 178.613007,115.764664 186.710663,115.764664 
	C186.710663,113.444099 186.710663,111.381439 186.710663,108.860374 
	C183.866150,108.860374 181.296555,108.860374 178.165802,108.860374 
	C178.165802,104.786034 178.430649,101.140320 178.097183,97.550163 
	C177.701126,93.286041 178.926697,91.221809 183.528656,91.954803 
	C185.320435,92.240196 187.409058,92.389175 186.991852,88.492508 
z"/>
<path fill="#F7F7F7" opacity="1.000000" stroke="none" 
	d="
M133.756897,114.618561 
	C131.389343,115.523987 129.052948,115.960304 126.311447,116.472282 
	C126.311447,105.892479 126.311447,95.832443 126.311447,85.229713 
	C133.834198,85.229713 141.628525,84.582840 149.262985,85.410530 
	C156.992172,86.248497 160.147186,98.052711 154.728622,104.215050 
	C153.874664,105.186234 152.775314,105.941643 151.531021,107.020958 
	C152.934067,109.801361 154.330917,112.569443 155.748444,115.378525 
	C148.165588,116.839134 148.165604,116.839127 144.654053,110.563934 
	C142.640701,106.966064 142.640686,106.966072 133.788071,107.870407 
	C133.788071,109.921867 133.788071,112.035660 133.756897,114.618561 
M141.411118,91.977951 
	C138.960373,91.977951 136.509628,91.977951 134.005676,91.977951 
	C134.005676,95.015953 134.005676,97.592628 134.005676,100.060509 
	C134.561829,100.302498 134.858383,100.540123 135.158951,100.545311 
	C137.816422,100.591240 140.474640,100.612381 143.132599,100.609558 
	C149.932266,100.602333 150.990173,98.883675 148.182465,91.977928 
	C146.321106,91.977928 144.339142,91.977928 141.411118,91.977951 
z"/>
<path fill="#F7F7F7" opacity="1.000000" stroke="none" 
	d="
M115.785843,116.024338 
	C113.413193,115.291016 110.209412,115.025146 109.722198,113.734116 
	C107.433990,107.670578 103.275589,106.380066 97.175537,107.896645 
	C97.175537,110.209938 97.175537,112.790138 97.175537,115.706764 
	C94.401741,115.706764 92.019844,115.706764 89.378159,115.706764 
	C89.378159,105.655388 89.378159,95.601501 89.378159,85.103912 
	C96.816956,85.103912 104.160309,84.509033 111.322906,85.387665 
	C114.317276,85.754982 118.654861,88.819824 119.307243,91.427383 
	C120.281586,95.321869 118.697754,99.929123 117.834602,104.158119 
	C117.625465,105.182785 115.979057,105.914093 114.757927,106.987404 
	C116.131622,109.833466 117.541367,112.754211 119.054535,115.889221 
	C117.850800,115.944275 117.028526,115.981880 115.785843,116.024338 
M112.680748,93.842796 
	C111.821487,93.222092 110.984154,92.104172 110.099243,92.065140 
	C105.841476,91.877350 101.570869,91.980682 97.124046,91.980682 
	C97.124046,94.973389 97.124046,97.548988 97.124046,100.617928 
	C100.569923,100.617928 103.875114,100.330887 107.109970,100.685486 
	C111.909294,101.211586 113.479218,99.150665 112.680748,93.842796 
z"/>
<path fill="#F3F3F3" opacity="1.000000" stroke="none" 
	d="
M83.066269,88.204453 
	C83.063538,97.644676 83.063538,106.603088 83.063538,115.799561 
	C80.513741,115.799561 78.254738,115.799561 75.607162,115.799561 
	C75.397743,114.742149 75.164528,113.564606 75.003410,112.751083 
	C71.980881,114.071594 69.113914,115.840240 66.002441,116.578758 
	C58.984928,118.244385 52.429512,113.218323 52.082039,106.030273 
	C51.817192,100.551437 52.020134,95.049988 52.015480,89.558594 
	C52.014370,88.248581 52.015316,86.938568 52.015316,85.339951 
	C54.670197,85.339951 57.041248,85.339951 59.875748,85.339951 
	C59.875748,91.292686 59.820141,97.077705 59.892406,102.861122 
	C59.956360,107.978943 61.003407,108.697517 67.871735,108.705605 
	C74.121979,108.712959 75.192963,107.899971 75.254837,102.750198 
	C75.324257,96.971085 75.270782,91.190491 75.270782,84.769066 
	C78.225418,86.208214 82.119270,82.319237 83.066269,88.204453 
z"/>
<path fill="#F4F4F4" opacity="1.000000" stroke="none" 
	d="
M32.162514,92.944626 
	C23.711933,92.970879 20.483143,97.565887 23.563971,105.176308 
	C24.153431,106.632408 26.771080,107.994896 28.538540,108.112236 
	C34.160198,108.485428 39.822231,108.250397 45.818352,108.250397 
	C45.818352,110.867729 45.818352,113.242447 45.818352,115.995232 
	C40.421474,115.995232 34.959023,116.258492 29.531868,115.933075 
	C21.541485,115.453972 14.830326,107.985161 15.006618,100.246376 
	C15.189254,92.229126 21.705021,85.521217 30.048800,85.114578 
	C35.194489,84.863792 40.362366,85.068123 45.850021,85.068123 
	C45.850021,87.575500 45.850021,89.976326 45.850021,92.944679 
	C41.486763,92.944679 37.062397,92.944679 32.162514,92.944626 
z"/>
<path fill="#FAFAFA" opacity="1.000000" stroke="none" 
	d="
M186.990906,88.952728 
	C187.409058,92.389175 185.320435,92.240196 183.528656,91.954803 
	C178.926697,91.221809 177.701126,93.286041 178.097183,97.550163 
	C178.430649,101.140320 178.165802,104.786034 178.165802,108.860374 
	C181.296555,108.860374 183.866150,108.860374 186.710663,108.860374 
	C186.710663,111.381439 186.710663,113.444099 186.710663,115.764664 
	C178.613007,115.764664 170.531433,115.764664 162.151550,115.764664 
	C162.151550,113.725998 162.151550,111.670029 162.148727,109.610474 
	C171.452850,107.993835 171.478439,107.900078 170.561142,95.314285 
	C170.095978,88.931892 164.934250,93.622490 162.198151,91.286469 
	C162.198151,89.774544 162.198151,87.713196 162.198151,85.078522 
	C169.654968,85.078522 177.255234,84.983177 184.844543,85.227600 
	C185.594589,85.251762 186.277679,87.354515 186.990906,88.952728 
z"/>
<path fill="#0E0E0E" opacity="1.000000" stroke="none" 
	d="
M141.884155,91.977936 
	C144.339142,91.977928 146.321106,91.977928 148.182465,91.977928 
	C150.990173,98.883675 149.932266,100.602333 143.132599,100.609558 
	C140.474640,100.612381 137.816422,100.591240 135.158951,100.545311 
	C134.858383,100.540123 134.561829,100.302498 134.005676,100.060509 
	C134.005676,97.592628 134.005676,95.015953 134.005676,91.977951 
	C136.509628,91.977951 138.960373,91.977951 141.884155,91.977936 
z"/>
<path fill="#111111" opacity="1.000000" stroke="none" 
	d="
M112.728592,94.272385 
	C113.479218,99.150665 111.909294,101.211586 107.109970,100.685486 
	C103.875114,100.330887 100.569923,100.617928 97.124046,100.617928 
	C97.124046,97.548988 97.124046,94.973389 97.124046,91.980682 
	C101.570869,91.980682 105.841476,91.877350 110.099243,92.065140 
	C110.984154,92.104172 111.821487,93.222092 112.728592,94.272385 
z"/>
</svg>